<?xml version="1.0" encoding="utf-8"?>
<!-- Generator: Adobe Illustrator 21.0.0, SVG Export Plug-In . SVG Version: 6.00 Build 0)  -->
<svg version="1.1" id="Layer_1" xmlns="http://www.w3.org/2000/svg" xmlns:xlink="http://www.w3.org/1999/xlink" x="0px" y="0px"
	 viewBox="0 0 206 83" style="enable-background:new 0 0 206 83;" xml:space="preserve">
<style type="text/css">
	.st0{fill:#1A2E42;}
	.st1{fill:#3E5060;}
</style>
<g>
	<g>
		<g>
			<path class="st0" d="M74.7,71.1h0.7l3.6,8.7h-0.9L77,77.1h-3.9L72,79.8h-0.9L74.7,71.1z M76.8,76.4L75,72.1l-1.8,4.3H76.8z"/>
			<path class="st0" d="M86.5,71.9h-3.1v7.9h-0.9v-7.9h-3.1v-0.8h7V71.9z"/>
			<path class="st0" d="M94.9,71.9h-3.1v7.9H91v-7.9h-3.1v-0.8h7V71.9z"/>
			<path class="st0" d="M100.3,79.9c-0.6,0-1.2-0.1-1.7-0.4c-0.5-0.2-0.9-0.6-1.3-1c-0.4-0.4-0.6-0.9-0.8-1.4
				c-0.2-0.5-0.3-1.1-0.3-1.6c0-0.6,0.1-1.1,0.3-1.7s0.5-1,0.9-1.4c0.4-0.4,0.8-0.7,1.3-1c0.5-0.2,1-0.4,1.6-0.4
				c0.6,0,1.2,0.1,1.7,0.4c0.5,0.3,0.9,0.6,1.3,1s0.6,0.9,0.8,1.4c0.2,0.5,0.3,1.1,0.3,1.6c0,0.6-0.1,1.1-0.3,1.7
				c-0.2,0.5-0.5,1-0.9,1.4c-0.4,0.4-0.8,0.7-1.3,1C101.4,79.7,100.8,79.9,100.3,79.9z M97.1,75.5c0,0.5,0.1,0.9,0.2,1.4
				c0.2,0.4,0.4,0.8,0.7,1.2c0.3,0.3,0.6,0.6,1,0.8c0.4,0.2,0.8,0.3,1.3,0.3c0.5,0,0.9-0.1,1.3-0.3c0.4-0.2,0.7-0.5,1-0.8
				c0.3-0.3,0.5-0.7,0.6-1.2c0.2-0.4,0.2-0.9,0.2-1.3c0-0.5-0.1-0.9-0.2-1.4c-0.2-0.4-0.4-0.8-0.7-1.2c-0.3-0.3-0.6-0.6-1-0.8
				c-0.4-0.2-0.8-0.3-1.3-0.3c-0.5,0-0.9,0.1-1.3,0.3s-0.7,0.5-1,0.8c-0.3,0.3-0.5,0.7-0.6,1.2C97.1,74.6,97.1,75,97.1,75.5z"/>
			<path class="st0" d="M106.9,79.8v-8.7h3.7c0.4,0,0.7,0.1,1,0.2c0.3,0.2,0.6,0.4,0.8,0.6c0.2,0.3,0.4,0.5,0.5,0.9
				c0.1,0.3,0.2,0.7,0.2,1c0,0.3,0,0.6-0.1,0.9c-0.1,0.3-0.2,0.5-0.4,0.8c-0.2,0.2-0.4,0.4-0.6,0.6c-0.2,0.2-0.5,0.3-0.8,0.3
				l2.1,3.3h-1l-2-3.2h-2.6v3.2H106.9z M107.8,75.8h2.8c0.3,0,0.5-0.1,0.7-0.2c0.2-0.1,0.4-0.3,0.5-0.4c0.1-0.2,0.3-0.4,0.3-0.6
				c0.1-0.2,0.1-0.5,0.1-0.7c0-0.3,0-0.5-0.1-0.7c-0.1-0.2-0.2-0.4-0.4-0.6c-0.2-0.2-0.3-0.3-0.6-0.4c-0.2-0.1-0.4-0.2-0.7-0.2h-2.8
				V75.8z"/>
			<path class="st0" d="M116.7,72.7v7.1h-0.9v-8.7h0.7l5.7,7.2v-7.2h0.9v8.6h-0.7L116.7,72.7z"/>
			<path class="st0" d="M132,79v0.8h-5.8v-8.7h5.7v0.8h-4.9V75h4.2v0.7h-4.2V79H132z"/>
			<path class="st0" d="M134.7,71.1l2.8,4.7l2.9-4.7h0.9l-3.4,5.4v3.2h-0.9v-3.2l-3.3-5.4H134.7z"/>
			<path class="st0" d="M148.4,72.8c-0.2-0.3-0.6-0.5-1-0.7s-0.9-0.3-1.4-0.3c-0.8,0-1.3,0.1-1.7,0.4c-0.3,0.3-0.5,0.7-0.5,1.2
				c0,0.3,0,0.5,0.1,0.6c0.1,0.2,0.2,0.3,0.4,0.4c0.2,0.1,0.4,0.2,0.7,0.3c0.3,0.1,0.7,0.2,1.1,0.3c0.5,0.1,0.9,0.2,1.2,0.3
				c0.4,0.1,0.7,0.3,0.9,0.5c0.3,0.2,0.5,0.4,0.6,0.7c0.1,0.3,0.2,0.6,0.2,1c0,0.4-0.1,0.7-0.2,1s-0.4,0.5-0.6,0.7
				c-0.3,0.2-0.6,0.3-1,0.4c-0.4,0.1-0.8,0.1-1.3,0.1c-1.3,0-2.5-0.4-3.5-1.3l0.4-0.7c0.2,0.2,0.3,0.3,0.6,0.5
				c0.2,0.1,0.5,0.3,0.7,0.4c0.3,0.1,0.5,0.2,0.8,0.3c0.3,0.1,0.6,0.1,1,0.1c0.7,0,1.2-0.1,1.6-0.4c0.4-0.2,0.6-0.6,0.6-1.1
				c0-0.3-0.1-0.5-0.2-0.7c-0.1-0.2-0.3-0.3-0.5-0.5c-0.2-0.1-0.5-0.2-0.8-0.3c-0.3-0.1-0.7-0.2-1.1-0.3c-0.5-0.1-0.9-0.2-1.2-0.3
				c-0.3-0.1-0.6-0.3-0.9-0.4c-0.2-0.2-0.4-0.4-0.5-0.6c-0.1-0.2-0.2-0.5-0.2-0.9c0-0.4,0.1-0.8,0.2-1.1c0.2-0.3,0.4-0.6,0.6-0.8
				c0.3-0.2,0.6-0.4,1-0.5c0.4-0.1,0.8-0.2,1.2-0.2c0.6,0,1.1,0.1,1.5,0.3c0.5,0.2,0.9,0.4,1.2,0.7L148.4,72.8z"/>
			<path class="st0" d="M158.1,71.1h0.7l3.6,8.7h-0.9l-1.1-2.7h-3.9l-1.1,2.7h-0.9L158.1,71.1z M160.2,76.4l-1.7-4.3l-1.8,4.3H160.2
				z"/>
			<path class="st0" d="M169.9,71.9h-3.1v7.9H166v-7.9h-3.1v-0.8h7V71.9z"/>
			<path class="st0" d="M175.9,79.8v-8.7h0.9V79h5v0.8H175.9z"/>
			<path class="st0" d="M186.7,71.1h0.7l3.6,8.7h-0.9l-1.1-2.7h-3.9l-1.1,2.7h-0.9L186.7,71.1z M188.8,76.4l-1.7-4.3l-1.8,4.3H188.8
				z"/>
			<path class="st0" d="M195.7,71.2h0.8l1.2,3.1l1.2-3.1h0.8l-1.5,3.7l1.7,3.9l3.1-7.7h0.9l-3.7,8.7h-0.8l-1.8-4.3l-1.8,4.3h-0.7
				l-3.7-8.7h0.9l3.1,7.7l1.6-3.9L195.7,71.2z"/>
		</g>
	</g>
	<g>
		<path class="st0" d="M71.4,28.7V2.6h11.4c1.2,0,2.3,0.2,3.3,0.7c1,0.5,1.8,1.1,2.6,1.9C89.3,6.1,89.8,7,90.2,8
			c0.4,1,0.6,2.1,0.6,3.1c0,0.9-0.1,1.7-0.4,2.5c-0.2,0.8-0.6,1.6-1,2.2c-0.4,0.7-1,1.3-1.6,1.8c-0.6,0.5-1.3,0.9-2.1,1.1l6.1,9.9
			h-4.7l-5.7-9.1h-6v9.1H71.4z M75.5,16h7.2c0.6,0,1.1-0.1,1.6-0.4c0.5-0.3,0.9-0.6,1.2-1.1c0.3-0.5,0.6-1,0.8-1.6
			c0.2-0.6,0.3-1.2,0.3-1.9c0-0.7-0.1-1.3-0.3-1.9c-0.2-0.6-0.5-1.1-0.9-1.5c-0.4-0.4-0.8-0.8-1.3-1c-0.5-0.3-1-0.4-1.6-0.4h-7V16z"
			/>
		<path class="st0" d="M113.6,25.1v3.6H95.7V2.6h17.6v3.6H99.8v7.4h11.7v3.4H99.8v8H113.6z"/>
		<path class="st0" d="M119.5,2.6l7.2,10.3L134,2.6h4.5L129,15.8l9.3,12.9h-4.5l-7-9.9l-7,9.9h-4.6l9.3-12.9l-9.6-13.2H119.5z"/>
		<path class="st0" d="M167.3,28.7l-2.4-2.5c-1.1,0.9-2.3,1.6-3.6,2.1c-1.3,0.5-2.6,0.7-4,0.7c-1.3,0-2.4-0.2-3.5-0.6
			c-1.1-0.4-2-0.9-2.7-1.6c-0.8-0.7-1.3-1.5-1.8-2.4c-0.4-0.9-0.6-1.9-0.6-2.9c0-0.8,0.1-1.6,0.4-2.3c0.3-0.7,0.6-1.4,1-2
			c0.4-0.6,1-1.2,1.5-1.7c0.6-0.5,1.2-1,1.8-1.4c-0.6-0.6-1-1.2-1.4-1.7c-0.4-0.5-0.7-1-0.9-1.5c-0.2-0.5-0.4-0.9-0.5-1.3
			c-0.1-0.4-0.2-0.9-0.2-1.3c0-0.9,0.2-1.7,0.5-2.4c0.4-0.7,0.8-1.4,1.5-1.9c0.6-0.5,1.3-1,2.2-1.3c0.8-0.3,1.8-0.4,2.7-0.4
			c0.9,0,1.7,0.1,2.5,0.4c0.8,0.2,1.5,0.6,2.1,1.1c0.6,0.5,1.1,1,1.5,1.7s0.5,1.5,0.5,2.4c0,0.7-0.1,1.4-0.4,2
			c-0.3,0.6-0.6,1.2-1,1.7c-0.4,0.6-1,1.1-1.6,1.6c-0.6,0.5-1.2,1-1.9,1.5l5.9,6.2c0.4-0.9,0.7-1.8,1-2.8c0.2-1,0.3-2.1,0.3-3.2h3.3
			c0,1.7-0.2,3.2-0.6,4.6c-0.4,1.4-0.9,2.7-1.7,3.8l5.2,5.4H167.3z M157.8,25.9c0.9,0,1.8-0.2,2.6-0.5c0.8-0.3,1.6-0.8,2.3-1.5
			l-6.8-7.2c-1,0.7-1.8,1.5-2.4,2.2c-0.6,0.8-0.9,1.7-0.9,2.6c0,0.6,0.1,1.2,0.4,1.7s0.6,1,1.1,1.3c0.5,0.4,1,0.7,1.6,0.9
			C156.4,25.8,157.1,25.9,157.8,25.9z M154.3,8.2c0,0.2,0,0.5,0.1,0.7c0.1,0.2,0.2,0.5,0.4,0.8c0.2,0.3,0.4,0.6,0.8,1
			c0.3,0.4,0.7,0.8,1.2,1.4c1.1-0.7,2-1.4,2.7-2c0.6-0.6,1-1.4,1-2.2c0-0.8-0.3-1.4-0.8-1.9c-0.6-0.5-1.3-0.7-2.1-0.7
			c-0.9,0-1.7,0.3-2.3,0.9C154.6,6.7,154.3,7.4,154.3,8.2z"/>
		<path class="st0" d="M71.4,64.2V38h11.4c1.2,0,2.3,0.2,3.3,0.7c1,0.5,1.8,1.1,2.6,1.9c0.7,0.8,1.3,1.7,1.7,2.7
			c0.4,1,0.6,2.1,0.6,3.1c0,0.9-0.1,1.7-0.4,2.5c-0.2,0.8-0.6,1.6-1,2.2c-0.4,0.7-1,1.3-1.6,1.8c-0.6,0.5-1.3,0.9-2.1,1.1l6.1,9.9
			h-4.7l-5.7-9.1h-6v9.1H71.4z M75.5,51.4h7.2c0.6,0,1.1-0.1,1.6-0.4c0.5-0.3,0.9-0.6,1.2-1.1c0.3-0.5,0.6-1,0.8-1.6
			c0.2-0.6,0.3-1.2,0.3-1.9c0-0.7-0.1-1.3-0.3-1.9c-0.2-0.6-0.5-1.1-0.9-1.5c-0.4-0.4-0.8-0.8-1.3-1c-0.5-0.3-1-0.4-1.6-0.4h-7V51.4
			z"/>
		<path class="st0" d="M113.6,60.5v3.6H95.7V38h17.6v3.6H99.8v7.4h11.7v3.4H99.8v8H113.6z"/>
		<path class="st0" d="M135.6,60.9c-2.2,2.3-4.7,3.4-7.6,3.4c-1.7,0-3.4-0.4-4.9-1.1c-1.5-0.7-2.8-1.7-3.9-2.9
			c-1.1-1.2-2-2.6-2.6-4.3c-0.6-1.6-0.9-3.3-0.9-5.1c0-1.8,0.3-3.4,0.9-5c0.6-1.6,1.5-3,2.6-4.2c1.1-1.2,2.4-2.2,3.9-2.9
			c1.5-0.7,3.2-1,5-1c2.5,0,4.6,0.5,6.3,1.6c1.7,1,3,2.4,3.8,4.1l-3.2,2.3c-0.7-1.4-1.7-2.5-2.9-3.2c-1.3-0.7-2.6-1.1-4.1-1.1
			c-1.2,0-2.3,0.3-3.3,0.8c-1,0.5-1.9,1.2-2.6,2.1c-0.7,0.9-1.3,1.9-1.6,3c-0.4,1.2-0.6,2.4-0.6,3.6c0,1.3,0.2,2.6,0.6,3.7
			c0.4,1.2,1,2.2,1.8,3c0.7,0.9,1.6,1.5,2.7,2c1,0.5,2.1,0.8,3.3,0.8c1.3,0,2.6-0.3,3.8-0.9c1.2-0.6,2.4-1.6,3.5-2.9V54h-5.5V51h8.9
			v13.2h-3.5V60.9z"/>
		<path class="st0" d="M143.8,64.2V38h4.1v26.1H143.8z"/>
		<path class="st0" d="M157.9,45.8v18.4h-4.1V38h3.2L172,56.9V38.1h4.2v26.1h-3.4L157.9,45.8z"/>
		<path class="st0" d="M189.7,38h3.6l10.3,26.1h-4.3l-2.8-7.1h-10.1l-2.7,7.1h-4.4L189.7,38z M195.7,54l-4.2-11.2L187.2,54H195.7z"
			/>
	</g>
	<g>
		<g>
			<g>
				<path class="st0" d="M51.9,28.1c0,0.3,0,0.6,0,0.9c0,0.2,0,0.4,0,0.6c0,0.4,0,0.9-0.1,1.3c0,0.3,0,0.5-0.1,0.8
					c0,0.3-0.1,0.5-0.1,0.8c0,0.1,0,0.2,0,0.3c0,0.2-0.1,0.5-0.1,0.7c0,0.3-0.1,0.6-0.2,0.8c-0.2,0.9-0.4,1.7-0.7,2.6
					c-0.1,0.2-0.1,0.5-0.2,0.7c-0.1,0.2-0.1,0.4-0.2,0.6c-0.1,0.2-0.2,0.4-0.2,0.6c0,0,0,0.1-0.1,0.1c-0.1,0.2-0.2,0.4-0.3,0.6
					c-0.1,0.2-0.2,0.4-0.2,0.5c0,0,0,0.1,0,0.1c-0.1,0.2-0.2,0.5-0.4,0.7c0,0,0,0.1-0.1,0.1c-0.1,0.2-0.2,0.4-0.4,0.6
					c0,0.1-0.1,0.1-0.1,0.2c-0.1,0.2-0.2,0.4-0.4,0.6c-0.2,0.2-0.3,0.5-0.5,0.7c-0.2,0.2-0.3,0.5-0.5,0.7c-0.1,0.2-0.2,0.3-0.4,0.5
					c-0.3,0.3-0.5,0.6-0.8,1c-0.2,0.2-0.4,0.4-0.6,0.6L45.3,46c-0.2,0.2-0.4,0.4-0.6,0.6c0,0,0,0,0,0c-0.2,0.2-0.4,0.4-0.7,0.6
					c-0.5,0.4-0.9,0.8-1.4,1.1c-0.1,0-0.1,0.1-0.2,0.1c-0.2,0.1-0.4,0.3-0.6,0.4c-0.5,0.3-1.1,0.7-1.6,1c-0.2,0.1-0.3,0.2-0.5,0.3
					c-0.5,0.3-1.1,0.5-1.7,0.8c-0.2,0.1-0.8,0.4-1.3,0.6l-9.3-11.1c0,0,0,0,0,0c1.2-0.2,2.4-0.6,3.4-1.2c0.3-0.2,0.6-0.3,0.9-0.5
					c3.3-2.1,5.5-5.7,5.6-9.8c0-0.1,0-0.3,0-0.4C37.3,22.2,33.2,16,24,16H1.4V2.3C9,2.3,16.6,2.4,24,2.4
					C42.3,2.5,51.9,14.7,51.9,28.1z"/>
			</g>
		</g>
		<g>
			<polygon class="st1" points="31.5,78.6 31.5,79.9 16.1,79.9 2,63.2 2,43.5 			"/>
		</g>
		<g>
			<g>
				<polygon class="st0" points="53.8,78.6 53.8,79.9 38.4,79.9 7.3,42.5 22.4,41.2 				"/>
			</g>
		</g>
	</g>
</g>
</svg>
